<svg xmlns="http://www.w3.org/2000/svg" viewBox="0 0 266.75 49.64" height="45"><defs><style>.cls-1{font-size:31px;font-family:YesevaOne-Regular, Yeseva One;}.cls-2{letter-spacing:-0.01em;}.cls-3{letter-spacing:0em;}.cls-4{letter-spacing:-0.02em;}.cls-5{fill:#c23f00;}</style></defs><g id="Livello_2" data-name="Livello 2"><g id="Livello_1-2" data-name="Livello 1"><text class="cls-1" transform="translate(0 40.03)"><tspan class="cls-2">C</tspan><tspan class="cls-3" x="19.84" y="0">osimo De Gio</tspan><tspan class="cls-4" x="222.42" y="0">r</tspan><tspan x="237.46" y="0">gi</tspan></text><path class="cls-5" d="M41.2,10.26V1.74h.61v8H46.9v.55Z" transform="translate(0 -1.68)"/><path class="cls-5" d="M49.13,10.26V1.74h.61v8.52Z" transform="translate(0 -1.68)"/><path class="cls-5" d="M52.35,5.93a4.47,4.47,0,0,1,.27-1.52A4.55,4.55,0,0,1,53.4,3a4,4,0,0,1,1.27-1,3.77,3.77,0,0,1,1.71-.37,3.45,3.45,0,0,1,1.94.52,3.28,3.28,0,0,1,1.2,1.34l-.5.29a2.84,2.84,0,0,0-.74-.94,2.76,2.76,0,0,0-.94-.5,3.53,3.53,0,0,0-1-.15,3.14,3.14,0,0,0-2.49,1.19,3.91,3.91,0,0,0-.66,1.2A4.12,4.12,0,0,0,53,6,3.92,3.92,0,0,0,54,8.6,3.36,3.36,0,0,0,55,9.44a2.91,2.91,0,0,0,1.34.32,3.31,3.31,0,0,0,1.05-.18,3.05,3.05,0,0,0,1-.54,2.78,2.78,0,0,0,.76-.95l.52.25a2.88,2.88,0,0,1-.82,1.08,3.88,3.88,0,0,1-1.23.67,4.18,4.18,0,0,1-1.33.23,3.46,3.46,0,0,1-1.6-.38,4.1,4.1,0,0,1-1.26-1,4.53,4.53,0,0,1-.82-1.41A4.46,4.46,0,0,1,52.35,5.93Z" transform="translate(0 -1.68)"/><path class="cls-5" d="M67.85,9.71v.55H62.18V1.74h5.56v.55H62.79V5.64h4.33v.53H62.79V9.71Z" transform="translate(0 -1.68)"/><path class="cls-5" d="M73.7,10.32A3.45,3.45,0,0,1,72.08,10a4,4,0,0,1-1.26-1A4.33,4.33,0,0,1,70,7.59,4.61,4.61,0,0,1,69.71,6a4.45,4.45,0,0,1,1.15-3,4.26,4.26,0,0,1,1.27-1,3.62,3.62,0,0,1,1.58-.35,3.45,3.45,0,0,1,1.62.37,4,4,0,0,1,1.26,1,4.61,4.61,0,0,1,.81,1.39A4.23,4.23,0,0,1,77.69,6a4.5,4.5,0,0,1-.3,1.64A4.65,4.65,0,0,1,76.55,9a4.11,4.11,0,0,1-1.28,1A3.61,3.61,0,0,1,73.7,10.32ZM70.32,6a3.87,3.87,0,0,0,.26,1.4,3.79,3.79,0,0,0,.7,1.2,3.12,3.12,0,0,0,1.07.84,3.05,3.05,0,0,0,2.74,0,3.42,3.42,0,0,0,1.07-.86,3.87,3.87,0,0,0,.67-1.21A4,4,0,0,0,77.07,6a3.86,3.86,0,0,0-.25-1.4,3.79,3.79,0,0,0-.7-1.2,3.22,3.22,0,0,0-1.07-.84,3,3,0,0,0-2.73,0,3.31,3.31,0,0,0-1.07.86,4.11,4.11,0,0,0-.68,1.21A4,4,0,0,0,70.32,6Z" transform="translate(0 -1.68)"/><path class="cls-5" d="M89.3,3.16a2.55,2.55,0,0,0-.46-.41,2.77,2.77,0,0,0-.54-.28,3,3,0,0,0-.62-.18A4.2,4.2,0,0,0,87,2.23a2.79,2.79,0,0,0-1.82.48A1.56,1.56,0,0,0,84.57,4a1.28,1.28,0,0,0,.26.86,1.77,1.77,0,0,0,.81.51,10.9,10.9,0,0,0,1.42.37,10.86,10.86,0,0,1,1.6.45,2.42,2.42,0,0,1,1,.7,1.83,1.83,0,0,1,.36,1.2,2.25,2.25,0,0,1-.21,1,1.91,1.91,0,0,1-.63.7,3.24,3.24,0,0,1-1,.42,5.28,5.28,0,0,1-1.24.14,5.72,5.72,0,0,1-1.26-.14,5.26,5.26,0,0,1-1.13-.42,4.75,4.75,0,0,1-1-.71L84,8.56a3.23,3.23,0,0,0,.59.51,4.06,4.06,0,0,0,.72.37,4.32,4.32,0,0,0,.84.25,4.56,4.56,0,0,0,.92.09,3.24,3.24,0,0,0,1.75-.41,1.38,1.38,0,0,0,.63-1.23,1.38,1.38,0,0,0-.29-.91,2.08,2.08,0,0,0-.89-.57,9.81,9.81,0,0,0-1.5-.41,10.7,10.7,0,0,1-1.53-.44,2.13,2.13,0,0,1-.95-.64,1.77,1.77,0,0,1-.32-1.11,2.22,2.22,0,0,1,.38-1.3A2.34,2.34,0,0,1,85.38,2,4.09,4.09,0,0,1,87,1.68a4.69,4.69,0,0,1,1,.11,3.2,3.2,0,0,1,.88.33,3.33,3.33,0,0,1,.75.56Z" transform="translate(0 -1.68)"/><path class="cls-5" d="M92,5.93a4.47,4.47,0,0,1,.27-1.52A4.37,4.37,0,0,1,93,3a3.85,3.85,0,0,1,1.26-1A3.77,3.77,0,0,1,96,1.68a3.51,3.51,0,0,1,2,.52,3.43,3.43,0,0,1,1.2,1.34l-.51.29a2.82,2.82,0,0,0-.73-.94,2.9,2.9,0,0,0-1-.5,3.46,3.46,0,0,0-1-.15,3.06,3.06,0,0,0-1.44.33,3.17,3.17,0,0,0-1.06.86,3.68,3.68,0,0,0-.65,1.2A4.14,4.14,0,0,0,92.58,6a3.84,3.84,0,0,0,.27,1.44,4,4,0,0,0,.72,1.2,3.36,3.36,0,0,0,1.08.84A2.94,2.94,0,0,0,96,9.76,3.27,3.27,0,0,0,97,9.58,3,3,0,0,0,98,9a2.56,2.56,0,0,0,.76-.95l.53.25a2.91,2.91,0,0,1-.83,1.08,3.94,3.94,0,0,1-1.22.67,4.24,4.24,0,0,1-1.34.23,3.42,3.42,0,0,1-1.59-.38,4.14,4.14,0,0,1-1.27-1,4.71,4.71,0,0,1-1.11-3Z" transform="translate(0 -1.68)"/><path class="cls-5" d="M101.8,10.26V1.74h.61v8.52Z" transform="translate(0 -1.68)"/><path class="cls-5" d="M111.28,9.71v.55H105.6V1.74h5.57v.55h-5V5.64h4.34v.53h-4.34V9.71Z" transform="translate(0 -1.68)"/><path class="cls-5" d="M114.52,2.88v7.38h-.61V1.74h.5l5.94,7.5V1.74H121v8.52h-.6Z" transform="translate(0 -1.68)"/><path class="cls-5" d="M130.1,2.29H127v8h-.62v-8h-3.12V1.74h6.86Z" transform="translate(0 -1.68)"/><path class="cls-5" d="M132.38,10.26V1.74H133v8.52Z" transform="translate(0 -1.68)"/><path class="cls-5" d="M136.18,10.26V1.74h5.54v.55h-4.93V5.68H141V6.2h-4.19v4.06Z" transform="translate(0 -1.68)"/><path class="cls-5" d="M144.27,10.26V1.74h.61v8.52Z" transform="translate(0 -1.68)"/><path class="cls-5" d="M147.48,5.93a4.47,4.47,0,0,1,.27-1.52A4.58,4.58,0,0,1,148.54,3a3.85,3.85,0,0,1,1.26-1,3.8,3.8,0,0,1,1.71-.37,3.48,3.48,0,0,1,2,.52,3.28,3.28,0,0,1,1.2,1.34l-.5.29a2.84,2.84,0,0,0-.74-.94,2.9,2.9,0,0,0-.95-.5,3.46,3.46,0,0,0-1-.15,3.06,3.06,0,0,0-1.44.33,3.17,3.17,0,0,0-1.06.86,3.68,3.68,0,0,0-.65,1.2A4.14,4.14,0,0,0,148.09,6a3.84,3.84,0,0,0,.27,1.44,4.26,4.26,0,0,0,.72,1.2,3.29,3.29,0,0,0,1.09.84,2.87,2.87,0,0,0,1.33.32,3.22,3.22,0,0,0,1.05-.18,3,3,0,0,0,1-.54,2.56,2.56,0,0,0,.76-.95l.53.25A2.81,2.81,0,0,1,154,9.42a3.83,3.83,0,0,1-1.22.67,4.23,4.23,0,0,1-1.33.23,3.46,3.46,0,0,1-1.6-.38,4.14,4.14,0,0,1-1.27-1,4.71,4.71,0,0,1-1.11-3Z" transform="translate(0 -1.68)"/><path class="cls-5" d="M160.62,10.32A3.51,3.51,0,0,1,159,10a4.25,4.25,0,0,1-1.26-1,4.49,4.49,0,0,1-.81-1.39A4.61,4.61,0,0,1,156.64,6a4.45,4.45,0,0,1,1.15-3,4.14,4.14,0,0,1,1.27-1,3.62,3.62,0,0,1,1.58-.35,3.45,3.45,0,0,1,1.62.37,4.07,4.07,0,0,1,1.26,1,4.61,4.61,0,0,1,.81,1.39A4.44,4.44,0,0,1,164.62,6a4.46,4.46,0,0,1-1.15,3,4,4,0,0,1-1.27,1A3.62,3.62,0,0,1,160.62,10.32ZM157.25,6a3.86,3.86,0,0,0,.25,1.4,4,4,0,0,0,.71,1.2,3.09,3.09,0,0,0,1.06.84,3,3,0,0,0,1.37.32A2.93,2.93,0,0,0,162,9.43a3.27,3.27,0,0,0,1.06-.86,3.71,3.71,0,0,0,.68-1.21A4,4,0,0,0,164,6a4.08,4.08,0,0,0-.25-1.4,4,4,0,0,0-.7-1.2A3.26,3.26,0,0,0,162,2.56a2.87,2.87,0,0,0-1.33-.32,3,3,0,0,0-1.4.33,3.27,3.27,0,0,0-1.06.86,4.11,4.11,0,0,0-.68,1.21A3.76,3.76,0,0,0,157.25,6Z" transform="translate(0 -1.68)"/><path class="cls-5" d="M176.22,3.16a2.49,2.49,0,0,0-.45-.41,2.77,2.77,0,0,0-.54-.28,3.07,3.07,0,0,0-.63-.18,4,4,0,0,0-.72-.06,2.81,2.81,0,0,0-1.82.48A1.56,1.56,0,0,0,171.49,4a1.34,1.34,0,0,0,.26.86,1.77,1.77,0,0,0,.81.51,11.57,11.57,0,0,0,1.43.37,10.86,10.86,0,0,1,1.6.45,2.38,2.38,0,0,1,1,.7,1.78,1.78,0,0,1,.37,1.2,2.12,2.12,0,0,1-.22,1,1.89,1.89,0,0,1-.62.7,3.19,3.19,0,0,1-1,.42,5.22,5.22,0,0,1-1.24.14,5.72,5.72,0,0,1-1.26-.14,5.46,5.46,0,0,1-1.13-.42,4.45,4.45,0,0,1-1-.71l.32-.49a3.68,3.68,0,0,0,.6.51,4.06,4.06,0,0,0,.72.37,4.44,4.44,0,0,0,.83.25,4.73,4.73,0,0,0,.93.09,3.2,3.2,0,0,0,1.74-.41,1.38,1.38,0,0,0,.63-1.23,1.33,1.33,0,0,0-.29-.91,2,2,0,0,0-.88-.57,9.81,9.81,0,0,0-1.5-.41,10.7,10.7,0,0,1-1.53-.44,2.13,2.13,0,0,1-.95-.64,1.77,1.77,0,0,1-.32-1.11,2.22,2.22,0,0,1,.38-1.3,2.29,2.29,0,0,1,1.06-.8,4.07,4.07,0,0,1,1.57-.28,4.78,4.78,0,0,1,1,.11,3.14,3.14,0,0,1,.87.33,3.33,3.33,0,0,1,.75.56Z" transform="translate(0 -1.68)"/><path class="cls-5" d="M185.4,2.29h-3.12v8h-.61v-8h-3.12V1.74h6.85Z" transform="translate(0 -1.68)"/><path class="cls-5" d="M189.53,1.74h.53l3.6,8.52H193l-1.16-2.81h-4.12l-1.16,2.81h-.66ZM191.64,7l-1.85-4.47L187.94,7Z" transform="translate(0 -1.68)"/><path class="cls-5" d="M201,2.29h-3.12v8h-.61v-8h-3.12V1.74H201Z" transform="translate(0 -1.68)"/><path class="cls-5" d="M205.17,1.74h.53l3.59,8.52h-.64l-1.16-2.81h-4.12l-1.17,2.81h-.66ZM207.28,7l-1.85-4.47L203.58,7Z" transform="translate(0 -1.68)"/><path class="cls-5" d="M211.55,10.26V1.74h.61v8h5.09v.55Z" transform="translate(0 -1.68)"/><path class="cls-5" d="M225.16,9.71v.55h-5.68V1.74h5.57v.55h-5V5.64h4.34v.53h-4.34V9.71Z" transform="translate(0 -1.68)"/></g></g></svg>