<svg xmlns="http://www.w3.org/2000/svg" viewBox="0 0 159.34 49.64"><defs><style>.cls-1{font-size:31px;font-family:YesevaOne-Regular, Yeseva One;}.cls-2{letter-spacing:-0.01em;}.cls-3{letter-spacing:0em;}.cls-4{fill:#c23f00;}</style></defs><g id="Livello_2" data-name="Livello 2"><g id="Livello_1-2" data-name="Livello 1"><text class="cls-1" transform="translate(0 40.03)">Le <tspan class="cls-2" x="44.95" y="0">C</tspan><tspan class="cls-3" x="64.79" y="0">osimò</tspan></text><path class="cls-4" d="M14,10.32A3.32,3.32,0,0,1,12.42,10a4,4,0,0,1-1.27-1,4.7,4.7,0,0,1-.84-1.39A4.41,4.41,0,0,1,10,6a4.46,4.46,0,0,1,.3-1.64A4.58,4.58,0,0,1,11.14,3,4,4,0,0,1,12.4,2,3.65,3.65,0,0,1,14,1.68a3.63,3.63,0,0,1,2,.52,3.25,3.25,0,0,1,1.21,1.34l-.82.58a2.51,2.51,0,0,0-1-1.11A2.92,2.92,0,0,0,14,2.65a2.45,2.45,0,0,0-1.18.28,2.7,2.7,0,0,0-.9.75,3.17,3.17,0,0,0-.58,1.07A4,4,0,0,0,11.1,6a3.88,3.88,0,0,0,.22,1.29A3.48,3.48,0,0,0,12,8.36a3,3,0,0,0,1,.72,2.58,2.58,0,0,0,1.17.27A2.89,2.89,0,0,0,15.46,9a4.38,4.38,0,0,0,1.25-1.14V9A3.48,3.48,0,0,1,14,10.32Zm2.59-3.49H14.74V6h2.75v4.25h-.92Z" transform="translate(0 -1.68)"/><path class="cls-4" d="M20.09,10.26V1.74h1.08v8.52Z" transform="translate(0 -1.68)"/><path class="cls-4" d="M27.62,10.32A3.68,3.68,0,0,1,26,10a3.9,3.9,0,0,1-1.26-1,4.33,4.33,0,0,1-.82-1.39A4.38,4.38,0,0,1,23.62,6a4.49,4.49,0,0,1,.3-1.63A4.71,4.71,0,0,1,24.78,3a4.26,4.26,0,0,1,1.27-1,3.71,3.71,0,0,1,1.6-.35,3.52,3.52,0,0,1,1.63.37,4,4,0,0,1,1.26,1,4.64,4.64,0,0,1,.82,1.39A4.5,4.5,0,0,1,31.65,6a4.71,4.71,0,0,1-.3,1.63A4.68,4.68,0,0,1,30.5,9a4,4,0,0,1-1.28,1A3.71,3.71,0,0,1,27.62,10.32ZM24.71,6a3.77,3.77,0,0,0,.21,1.25,3.52,3.52,0,0,0,.59,1.08,2.9,2.9,0,0,0,.93.74,2.53,2.53,0,0,0,1.2.28,2.59,2.59,0,0,0,1.22-.29,2.85,2.85,0,0,0,.92-.77,3.74,3.74,0,0,0,.58-1.08A3.87,3.87,0,0,0,30.55,6a3.77,3.77,0,0,0-.21-1.25,3.4,3.4,0,0,0-.6-1.07,2.87,2.87,0,0,0-.92-.75,2.73,2.73,0,0,0-2.41,0,2.67,2.67,0,0,0-.91.76,3.61,3.61,0,0,0-.59,1.07A3.9,3.9,0,0,0,24.71,6Z" transform="translate(0 -1.68)"/><path class="cls-4" d="M34.11,10.26V1.74h3.64a2.4,2.4,0,0,1,1,.23,2.77,2.77,0,0,1,.81.63,3,3,0,0,1,.54.87,2.68,2.68,0,0,1,.19,1,2.8,2.8,0,0,1-.22,1.12,2.59,2.59,0,0,1-.62.9,2.23,2.23,0,0,1-.94.52l2.06,3.26H39.39l-2-3.06H35.19v3.06Zm1.08-4h2.58A1.23,1.23,0,0,0,38.54,6a1.69,1.69,0,0,0,.52-.65,2.13,2.13,0,0,0,.18-.88,1.8,1.8,0,0,0-.78-1.52,1.32,1.32,0,0,0-.77-.24h-2.5Z" transform="translate(0 -1.68)"/><path class="cls-4" d="M44,3.73v6.53H43V1.74h.91L49.07,8.4V1.75h1.08v8.51h-1Z" transform="translate(0 -1.68)"/><path class="cls-4" d="M55.74,1.74h.91l3.48,8.52H59L58,7.76H54.36l-1,2.5H52.25Zm2,5.18L56.2,3,54.68,6.92Z" transform="translate(0 -1.68)"/><path class="cls-4" d="M62.23,10.26V1.74h1.08V9.3h4.75v1Z" transform="translate(0 -1.68)"/><path class="cls-4" d="M76,9.3v1H70.2V1.74h5.68v1h-4.6V5.46h4v.9h-4V9.3Z" transform="translate(0 -1.68)"/><path class="cls-4" d="M82.42,10.26V1.74h3a4.3,4.3,0,0,1,2.29.57A3.52,3.52,0,0,1,89,3.85,5,5,0,0,1,89.49,6,4.73,4.73,0,0,1,89,8.24a3.54,3.54,0,0,1-1.43,1.49,4.32,4.32,0,0,1-2.18.53Zm6-4.27A3.9,3.9,0,0,0,88,4.28a2.76,2.76,0,0,0-1-1.16,3,3,0,0,0-1.64-.42H83.5V9.3h1.87A3,3,0,0,0,87,8.86a2.89,2.89,0,0,0,1-1.19A4,4,0,0,0,88.39,6Z" transform="translate(0 -1.68)"/><path class="cls-4" d="M97.75,9.3v1H92V1.74h5.68v1h-4.6V5.46h4v.9h-4V9.3Z" transform="translate(0 -1.68)"/><path class="cls-4" d="M100.19,10.26V1.74h1.08V9.3H106v1Z" transform="translate(0 -1.68)"/><path class="cls-4" d="M111.83,10.26V1.74h1.08V9.3h4.75v1Z" transform="translate(0 -1.68)"/><path class="cls-4" d="M119.8,10.26V1.74h1.08v8.52Z" transform="translate(0 -1.68)"/><path class="cls-4" d="M123.32,5.93a4.49,4.49,0,0,1,.27-1.53,4.4,4.4,0,0,1,.8-1.37,3.74,3.74,0,0,1,1.27-1,3.84,3.84,0,0,1,1.72-.37,3.56,3.56,0,0,1,2,.52,3.38,3.38,0,0,1,1.21,1.34l-.85.55a2.51,2.51,0,0,0-.65-.86,2.45,2.45,0,0,0-.84-.45,3.41,3.41,0,0,0-.88-.13,2.65,2.65,0,0,0-1.25.29,2.75,2.75,0,0,0-.92.77,3.53,3.53,0,0,0-.56,1.07,4.16,4.16,0,0,0-.18,1.2,3.65,3.65,0,0,0,.22,1.27,3.39,3.39,0,0,0,.62,1.08,2.9,2.9,0,0,0,.93.74,2.48,2.48,0,0,0,1.18.28,2.73,2.73,0,0,0,.91-.16,2.82,2.82,0,0,0,.88-.48,2.34,2.34,0,0,0,.64-.86l.9.49a2.66,2.66,0,0,1-.81,1.08,3.88,3.88,0,0,1-1.23.67,4.24,4.24,0,0,1-1.34.23,3.5,3.5,0,0,1-1.61-.38,4,4,0,0,1-1.26-1,4.56,4.56,0,0,1-.83-1.41A4.48,4.48,0,0,1,123.32,5.93Z" transform="translate(0 -1.68)"/><path class="cls-4" d="M138.8,9.3v1H133V1.74h5.68v1h-4.6V5.46h4v.9h-4V9.3Z" transform="translate(0 -1.68)"/><path class="cls-4" d="M144.53,10.32A3.62,3.62,0,0,1,142.9,10a4,4,0,0,1-1.27-1,4.33,4.33,0,0,1-.82-1.39A4.61,4.61,0,0,1,140.52,6a4.3,4.3,0,0,1,.31-1.63A4.48,4.48,0,0,1,141.68,3,4.18,4.18,0,0,1,143,2a3.67,3.67,0,0,1,1.59-.35,3.49,3.49,0,0,1,1.63.37,4,4,0,0,1,1.26,1,4.44,4.44,0,0,1,.82,1.39A4.47,4.47,0,0,1,147.4,9a4,4,0,0,1-1.28,1A3.67,3.67,0,0,1,144.53,10.32ZM141.61,6a3.77,3.77,0,0,0,.21,1.25,3.34,3.34,0,0,0,.6,1.08,2.76,2.76,0,0,0,.92.74,2.53,2.53,0,0,0,1.2.28,2.56,2.56,0,0,0,1.22-.29,2.85,2.85,0,0,0,.92-.77,3.52,3.52,0,0,0,.58-1.08,3.88,3.88,0,0,0,.2-1.21,3.77,3.77,0,0,0-.21-1.25,3.4,3.4,0,0,0-.6-1.07,2.8,2.8,0,0,0-.93-.75,2.71,2.71,0,0,0-2.4,0,2.7,2.7,0,0,0-.92.76,3.58,3.58,0,0,0-.58,1.07A3.64,3.64,0,0,0,141.61,6Z" transform="translate(0 -1.68)"/></g></g></svg>