<svg xmlns="http://www.w3.org/2000/svg" viewBox="0 0 264.74 46.69"><defs><style>.cls-1{fill:#c23f00;}</style></defs><g id="Livello_2" data-name="Livello 2"><g id="Livello_1-2" data-name="Livello 1"><path d="M2.79,37.55Q0,34.61,0,29.18a14.12,14.12,0,0,1,1.22-6.12,8.79,8.79,0,0,1,3.45-3.88A9.8,9.8,0,0,1,9.8,17.86a7.21,7.21,0,0,1,3.56,1,6.92,6.92,0,0,1,1.37,1,5.64,5.64,0,0,1,1.08-1.27l.62-.44h.78v5.89H16a9.26,9.26,0,0,0-1.21-2.69,6.8,6.8,0,0,0-1.85-2,4.29,4.29,0,0,0-2.52-.77q-2.14,0-3.55,2.48T5.43,29.18q0,5.67,1.53,8.11a4.73,4.73,0,0,0,4.2,2.43,5.11,5.11,0,0,0,2.77-.82,6.41,6.41,0,0,0,2.14-2.19,5.49,5.49,0,0,0,.83-2.88h.77a6.09,6.09,0,0,1-1,3.3,7,7,0,0,1-2.57,2.45,7.23,7.23,0,0,1-3.61.91A10.17,10.17,0,0,1,2.79,37.55Z"/><path d="M21.87,38.31a8.14,8.14,0,0,1-2.18-6,8.14,8.14,0,0,1,2.18-6,8.15,8.15,0,0,1,6-2.19,8.15,8.15,0,0,1,6,2.19,8.15,8.15,0,0,1,2.19,6,8.15,8.15,0,0,1-2.19,6,8.14,8.14,0,0,1-6,2.18A8.14,8.14,0,0,1,21.87,38.31ZM30,38.14a14.35,14.35,0,0,0,.86-5.86A14.35,14.35,0,0,0,30,26.42c-.57-1.16-1.26-1.74-2.09-1.74s-1.52.58-2.09,1.74A14.38,14.38,0,0,0,25,32.28a14.38,14.38,0,0,0,.85,5.86c.57,1.16,1.26,1.73,2.09,1.73S29.42,39.3,30,38.14Z"/><path d="M42.44,39.66a5.17,5.17,0,0,1-1.21-.87,4.12,4.12,0,0,1-1.7,1.39h-.78V34.91H40a8.63,8.63,0,0,0,1.18,2.42,4.84,4.84,0,0,0,4.09,2.39,2.73,2.73,0,0,0,2-.64,2.44,2.44,0,0,0,.67-1.84A2.09,2.09,0,0,0,47,35.52a20.28,20.28,0,0,0-2.87-1.72,29.33,29.33,0,0,1-2.71-1.51,6.54,6.54,0,0,1-1.77-1.67,4,4,0,0,1-.72-2.37,3.57,3.57,0,0,1,1.59-3,8.36,8.36,0,0,1,4.92-1.17,5.62,5.62,0,0,1,3,.87,7.63,7.63,0,0,1,1.18.84,5,5,0,0,1,1.09-1.06,6.3,6.3,0,0,1,.62-.34h.77v5.27H50.87a11,11,0,0,0-1.15-2.38Q48.18,24.85,46,24.84a1.91,1.91,0,0,0-1.43.62A2.17,2.17,0,0,0,44,27a2.44,2.44,0,0,0,1,2,18.93,18.93,0,0,0,3,1.81c1.09.56,2,1.05,2.62,1.47a6.57,6.57,0,0,1,1.67,1.57A3.48,3.48,0,0,1,53,36c0,3-2.38,4.49-7.13,4.49A7.09,7.09,0,0,1,42.44,39.66Z"/><path d="M55.33,39.56l1.86-.46V25.46L55.33,25v-.46h4a2.47,2.47,0,0,1,2.79,2.79V39.1l1.86.46V40H55.33Zm2.48-17.51a2.25,2.25,0,0,1,0-3.1,2.26,2.26,0,0,1,3.11,0,2.25,2.25,0,0,1,0,3.1,2.26,2.26,0,0,1-3.11,0Z"/><path d="M65.88,39.56l1.85-.46V25.46L65.88,25v-.46h2.79a3.68,3.68,0,0,1,2.88,1.18,4.2,4.2,0,0,1,.68,1.14,6.06,6.06,0,0,1,1-1.39,4.41,4.41,0,0,1,3.2-1.4,6.28,6.28,0,0,1,3.16.79A5.45,5.45,0,0,1,81.68,27a6.74,6.74,0,0,1,1-1.46,4.33,4.33,0,0,1,3.19-1.49,6.3,6.3,0,0,1,3,.69,5.07,5.07,0,0,1,2,1.86,4.82,4.82,0,0,1,.72,2.57V39.1l1.86.46V40h-4a2.47,2.47,0,0,1-2.79-2.79V29.18a5.8,5.8,0,0,0-.62-3,1.71,1.71,0,0,0-1.39-1,2.48,2.48,0,0,0-1.83,1.24,9.12,9.12,0,0,0-.65,1.24V39.1l1.86.46V40H75.33v-.47l1.86-.46V29.18a5.9,5.9,0,0,0-.62-3,1.72,1.72,0,0,0-1.4-1,2.48,2.48,0,0,0-1.82,1.24,9.18,9.18,0,0,0-.66,1.24V39.1l1.86.46V40H65.88Z"/><path d="M97.51,38.31a8.14,8.14,0,0,1-2.18-6,8.14,8.14,0,0,1,2.18-6,9.4,9.4,0,0,1,12.06,0,8.14,8.14,0,0,1,2.18,6,8.14,8.14,0,0,1-2.18,6,9.43,9.43,0,0,1-12.06,0Zm8.12-.17a14.35,14.35,0,0,0,.86-5.86,14.35,14.35,0,0,0-.86-5.86c-.57-1.16-1.26-1.74-2.09-1.74s-1.52.58-2.09,1.74a14.35,14.35,0,0,0-.86,5.86,14.35,14.35,0,0,0,.86,5.86c.57,1.16,1.26,1.73,2.09,1.73S105.06,39.3,105.63,38.14Z"/><path d="M123.22,39.56l1.86-.46V19.26l-1.86-.47v-.46h7.91c3.7,0,6.53,1,8.51,2.85s3,4.57,3,8-1,6.1-3,8S134.83,40,131.13,40h-7.91Zm7.91-.31a5.07,5.07,0,0,0,4.46-2.34c1.06-1.56,1.58-4.13,1.58-7.73s-.52-6.18-1.58-7.74a5.07,5.07,0,0,0-4.46-2.34h-.93V39.25Z"/><path d="M147.28,38.31a8.11,8.11,0,0,1-2.2-6,9.42,9.42,0,0,1,1-4.37,6.78,6.78,0,0,1,2.68-2.85,7.71,7.71,0,0,1,3.95-1,8.74,8.74,0,0,1,3.93.84,6.46,6.46,0,0,1,2.6,2.25,5.6,5.6,0,0,1,.91,3.11A5.27,5.27,0,0,1,160,31.6l-.16.52c-.88.19-1.85.34-2.88.47a46.4,46.4,0,0,1-6.57.46q0,3.6,1,5.13a3.08,3.08,0,0,0,2.73,1.54,4.62,4.62,0,0,0,2.25-.57A4.54,4.54,0,0,0,158,37.63a3.59,3.59,0,0,0,.6-1.94h.78a4.12,4.12,0,0,1-.75,2.35,5.2,5.2,0,0,1-2.07,1.79,6.83,6.83,0,0,1-3.07.66A8.36,8.36,0,0,1,147.28,38.31Zm6.29-6.19a7.86,7.86,0,0,0,1.12-.15c0-.1.07-.33.15-.68a8,8,0,0,0,.16-1.65,7.93,7.93,0,0,0-.68-3.76,2,2,0,0,0-1.65-1.2c-1.55,0-2.32,2.54-2.32,7.6A25.41,25.41,0,0,0,153.57,32.12Z"/><path d="M175.61,39.16a9.17,9.17,0,0,1-3.16-3.89,14.51,14.51,0,0,1-1.18-6.09,14,14,0,0,1,1.23-6.12,8.71,8.71,0,0,1,3.44-3.88,9.85,9.85,0,0,1,5.13-1.32,7.15,7.15,0,0,1,3.56,1,6.92,6.92,0,0,1,1.37,1,5.64,5.64,0,0,1,1.08-1.27l.62-.44h.78v5.89h-1.24A9,9,0,0,0,186,21.37a6.9,6.9,0,0,0-1.84-2,4.35,4.35,0,0,0-2.53-.77q-2.15,0-3.55,2.48t-1.41,8.06q0,5.58,1.25,7.9c.84,1.55,1.92,2.33,3.24,2.33a2.6,2.6,0,0,0,2.08-1.24,7.06,7.06,0,0,0,.71-1.24V29.8l-1.86-.47v-.46H191v.46l-1.86.47V40.18h-.47a4.51,4.51,0,0,1-3.44-1.24,3.11,3.11,0,0,1-.74-1.24,6.9,6.9,0,0,1-1,1.4A4.72,4.72,0,0,1,180,40.49,7.63,7.63,0,0,1,175.61,39.16Z"/><path d="M192.82,39.56l1.86-.46V25.46L192.82,25v-.46h4a2.47,2.47,0,0,1,2.79,2.79V39.1l1.86.46V40h-8.68Zm2.48-17.51a2.25,2.25,0,1,1,1.55.62A2.11,2.11,0,0,1,195.3,22.05Z"/><path d="M205.54,38.31a8.18,8.18,0,0,1-2.18-6,8.18,8.18,0,0,1,2.18-6,9.4,9.4,0,0,1,12.06,0,8.15,8.15,0,0,1,2.19,6,8.15,8.15,0,0,1-2.19,6,9.43,9.43,0,0,1-12.06,0Zm8.13-.17a14.56,14.56,0,0,0,.85-5.86,14.56,14.56,0,0,0-.85-5.86q-.85-1.74-2.1-1.74c-.82,0-1.52.58-2.09,1.74a14.38,14.38,0,0,0-.85,5.86,14.38,14.38,0,0,0,.85,5.86c.57,1.16,1.27,1.73,2.09,1.73S213.1,39.3,213.67,38.14Z"/><path d="M222.27,39.56l1.86-.46V25.46L222.27,25v-.46h2.79a3.65,3.65,0,0,1,2.88,1.18,4,4,0,0,1,.68,1.14,6.37,6.37,0,0,1,1.15-1.24,5.45,5.45,0,0,1,3.47-1.24,3.56,3.56,0,0,1,2.47.76,2.87,2.87,0,0,1,.82,2.19,2.18,2.18,0,0,1-2.33,2.32,6.36,6.36,0,0,1-.87-.06l-.37-.09V25.15a4.08,4.08,0,0,0-2.88,1.24,6.72,6.72,0,0,0-1,1.24V39.1l1.86.46V40h-8.68Z"/><path d="M240.09,46.2a5.7,5.7,0,0,1-2.49-1.27,2.34,2.34,0,0,1-.76-1.65A2.17,2.17,0,0,1,239.16,41a7.68,7.68,0,0,1,.9.09l.34.06v4.34a10.77,10.77,0,0,0,1.18.31,12.51,12.51,0,0,0,2.7.31A10.89,10.89,0,0,0,249.81,45a3.08,3.08,0,0,0,1.75-2.65q0-2-3.72-2H242a5.7,5.7,0,0,1-3.56-1,3,3,0,0,1-1.24-2.45,3.31,3.31,0,0,1,1.46-2.64,6.18,6.18,0,0,1,1.48-.77,4.61,4.61,0,0,1-1.66-1.69,5,5,0,0,1-.51-2.34,4.56,4.56,0,0,1,1.74-3.71,7.91,7.91,0,0,1,5.08-1.41,11.22,11.22,0,0,1,2.68.3,6.16,6.16,0,0,1,2,.79,3.61,3.61,0,0,1,.65-.93,3.13,3.13,0,0,1,2.3-.93,2.38,2.38,0,0,1,1.77.73,2.61,2.61,0,0,1,.71,1.9,2.16,2.16,0,0,1-.48,1.46,1.56,1.56,0,0,1-1.23.56,5.75,5.75,0,0,1-.77-.06l-.31-.1V24.37a2,2,0,0,0-1.52.78,2.44,2.44,0,0,0-.5.77,4.85,4.85,0,0,1-.18,7.27,7.92,7.92,0,0,1-5.09,1.41,10.06,10.06,0,0,1-4-.77l-.62.31a1.84,1.84,0,0,0-.46.36.56.56,0,0,0-.16.41.87.87,0,0,0,.55.81A4.55,4.55,0,0,0,242,36h5.89a4.88,4.88,0,0,1,3.65,1.35,5.18,5.18,0,0,1,1.31,3.76,4.79,4.79,0,0,1-2.06,4c-1.37,1-3.42,1.55-6.15,1.55A16.89,16.89,0,0,1,240.09,46.2ZM246.34,33a7.6,7.6,0,0,0,.57-3.5,7.6,7.6,0,0,0-.57-3.5,1.77,1.77,0,0,0-3.19,0,7.44,7.44,0,0,0-.58,3.5,7.44,7.44,0,0,0,.58,3.5,1.78,1.78,0,0,0,3.19,0Z"/><path d="M256.06,39.56l1.86-.46V25.46L256.06,25v-.46h4a2.47,2.47,0,0,1,2.79,2.79V39.1l1.86.46V40h-8.68Zm2.48-17.51a2.25,2.25,0,0,1,0-3.1,2.17,2.17,0,1,1,0,3.1Z"/><path class="cls-1" d="M39.71,8.58V.06h1.08V7.62h4.75v1Z"/><path class="cls-1" d="M47.68,8.58V.06h1.08V8.58Z"/><path class="cls-1" d="M51.2,4.25a4.49,4.49,0,0,1,.27-1.53,4.4,4.4,0,0,1,.8-1.37,3.74,3.74,0,0,1,1.27-1A3.84,3.84,0,0,1,55.26,0a3.56,3.56,0,0,1,2,.52,3.38,3.38,0,0,1,1.21,1.34l-.85.55a2.51,2.51,0,0,0-.65-.86,2.45,2.45,0,0,0-.84-.45A3.41,3.41,0,0,0,55.21,1,2.65,2.65,0,0,0,54,1.26,2.75,2.75,0,0,0,53,2a3.53,3.53,0,0,0-.56,1.07,4.16,4.16,0,0,0-.18,1.2,3.65,3.65,0,0,0,.22,1.27,3.39,3.39,0,0,0,.62,1.08,2.9,2.9,0,0,0,.93.74,2.48,2.48,0,0,0,1.18.28,2.73,2.73,0,0,0,.91-.16A2.82,2.82,0,0,0,57,7a2.34,2.34,0,0,0,.64-.86l.9.49a2.66,2.66,0,0,1-.81,1.08,3.88,3.88,0,0,1-1.23.67,4.24,4.24,0,0,1-1.34.23,3.5,3.5,0,0,1-1.61-.38,4,4,0,0,1-1.26-1,4.56,4.56,0,0,1-.83-1.41A4.48,4.48,0,0,1,51.2,4.25Z"/><path class="cls-1" d="M66.68,7.62v1H60.9V.06h5.68V1H62V3.78h4v.9H62V7.62Z"/><path class="cls-1" d="M72.41,8.64a3.62,3.62,0,0,1-1.63-.36,4,4,0,0,1-1.27-1,4.33,4.33,0,0,1-.82-1.39,4.61,4.61,0,0,1-.29-1.59,4.3,4.3,0,0,1,.31-1.63,4.48,4.48,0,0,1,.85-1.38,4.18,4.18,0,0,1,1.28-1A3.67,3.67,0,0,1,72.43,0a3.49,3.49,0,0,1,1.63.37,4,4,0,0,1,1.26,1,4.44,4.44,0,0,1,.82,1.39,4.47,4.47,0,0,1-.86,4.58A4,4,0,0,1,74,8.29,3.67,3.67,0,0,1,72.41,8.64ZM69.49,4.32a3.77,3.77,0,0,0,.21,1.25,3.34,3.34,0,0,0,.6,1.08,2.76,2.76,0,0,0,.92.74,2.53,2.53,0,0,0,1.2.28,2.56,2.56,0,0,0,1.22-.29,2.85,2.85,0,0,0,.92-.77,3.52,3.52,0,0,0,.58-1.08,3.88,3.88,0,0,0,.2-1.21,3.77,3.77,0,0,0-.21-1.25A3.4,3.4,0,0,0,74.53,2a2.8,2.8,0,0,0-.93-.75,2.71,2.71,0,0,0-2.4,0,2.7,2.7,0,0,0-.92.76A3.58,3.58,0,0,0,69.7,3.1,3.64,3.64,0,0,0,69.49,4.32Z"/><path class="cls-1" d="M87.89,1.85a2.24,2.24,0,0,0-.39-.33A4.52,4.52,0,0,0,87,1.24a3.82,3.82,0,0,0-.65-.2A3.57,3.57,0,0,0,85.57,1a2.31,2.31,0,0,0-1.45.37,1.24,1.24,0,0,0-.47,1,1,1,0,0,0,.24.72,1.9,1.9,0,0,0,.74.43c.33.11.75.22,1.27.34a9,9,0,0,1,1.53.47,2.34,2.34,0,0,1,1,.74,2,2,0,0,1,.35,1.22,2.21,2.21,0,0,1-.24,1.06,1.93,1.93,0,0,1-.65.74,2.78,2.78,0,0,1-1,.43,5.17,5.17,0,0,1-1.22.14,6,6,0,0,1-1.27-.14,5.21,5.21,0,0,1-1.17-.4,5.63,5.63,0,0,1-1-.66l.52-.91a2.73,2.73,0,0,0,.5.4,5.49,5.49,0,0,0,.69.37,5,5,0,0,0,.85.27,4.73,4.73,0,0,0,.93.1,2.59,2.59,0,0,0,1.42-.33,1.07,1.07,0,0,0,.5-1,1,1,0,0,0-.28-.77,2.16,2.16,0,0,0-.83-.48c-.37-.12-.82-.25-1.35-.38a9.17,9.17,0,0,1-1.45-.47,2.06,2.06,0,0,1-.88-.68,1.82,1.82,0,0,1-.29-1.09,2.33,2.33,0,0,1,.39-1.37A2.44,2.44,0,0,1,84,.29,4.16,4.16,0,0,1,85.6,0a4.55,4.55,0,0,1,1.07.12,4.13,4.13,0,0,1,.93.34,3.82,3.82,0,0,1,.79.51Z"/><path class="cls-1" d="M90.6,4.25a4.49,4.49,0,0,1,.27-1.53,4.37,4.37,0,0,1,.79-1.37,3.87,3.87,0,0,1,1.28-1A3.81,3.81,0,0,1,94.66,0a3.51,3.51,0,0,1,2,.52,3.23,3.23,0,0,1,1.21,1.34L97,2.41a2.48,2.48,0,0,0-.64-.86,2.45,2.45,0,0,0-.84-.45A3.41,3.41,0,0,0,94.61,1,2.64,2.64,0,0,0,92.44,2a3.32,3.32,0,0,0-.56,1.07,3.86,3.86,0,0,0-.19,1.2,3.9,3.9,0,0,0,.22,1.27,3.59,3.59,0,0,0,.62,1.08,3.05,3.05,0,0,0,.94.74,2.46,2.46,0,0,0,1.17.28,2.79,2.79,0,0,0,.92-.16A2.67,2.67,0,0,0,96.43,7a2.36,2.36,0,0,0,.65-.86l.9.49a2.78,2.78,0,0,1-.82,1.08,3.68,3.68,0,0,1-1.23.67,4.18,4.18,0,0,1-1.33.23A3.47,3.47,0,0,1,93,8.26a4.14,4.14,0,0,1-1.27-1,5,5,0,0,1-.83-1.41A4.69,4.69,0,0,1,90.6,4.25Z"/><path class="cls-1" d="M100.3,8.58V.06h1.08V8.58Z"/><path class="cls-1" d="M110.16,7.62v1h-5.78V.06h5.67V1h-4.59V3.78h4v.9h-4V7.62Z"/><path class="cls-1" d="M113.68,2.05V8.58H112.6V.06h.91l5.21,6.66V.07h1.08V8.58h-1Z"/><path class="cls-1" d="M128.94,1H126V8.58h-1.08V1H122v-1h7Z"/><path class="cls-1" d="M131.12,8.58V.06h1.08V8.58Z"/><path class="cls-1" d="M135.2,8.58V.06h5.63V1h-4.55V3.86h3.83v.9h-3.83V8.58Z"/><path class="cls-1" d="M143.16,8.58V.06h1.08V8.58Z"/><path class="cls-1" d="M146.69,4.25A4.49,4.49,0,0,1,147,2.72a4.37,4.37,0,0,1,.79-1.37,3.85,3.85,0,0,1,3-1.35,3.54,3.54,0,0,1,2,.52,3.3,3.3,0,0,1,1.21,1.34l-.85.55a2.48,2.48,0,0,0-.64-.86,2.45,2.45,0,0,0-.84-.45A3.47,3.47,0,0,0,150.7,1a2.69,2.69,0,0,0-1.26.29,2.85,2.85,0,0,0-.92.77A3.5,3.5,0,0,0,148,3.1a3.86,3.86,0,0,0-.19,1.2A3.65,3.65,0,0,0,148,5.57a3.59,3.59,0,0,0,.62,1.08,2.94,2.94,0,0,0,.94.74,2.46,2.46,0,0,0,1.17.28,2.69,2.69,0,0,0,.91-.16,2.61,2.61,0,0,0,.88-.48,2.36,2.36,0,0,0,.65-.86l.9.49a2.78,2.78,0,0,1-.82,1.08,3.88,3.88,0,0,1-1.23.67,4.24,4.24,0,0,1-1.34.23,3.43,3.43,0,0,1-1.6-.38,4.14,4.14,0,0,1-1.27-1A4.77,4.77,0,0,1,147,5.84,4.69,4.69,0,0,1,146.69,4.25Z"/><path class="cls-1" d="M159.74,8.64a3.65,3.65,0,0,1-1.63-.36,3.9,3.9,0,0,1-1.26-1A4.55,4.55,0,0,1,156,5.91a4.59,4.59,0,0,1-.28-1.59,4.49,4.49,0,0,1,.3-1.63,4.89,4.89,0,0,1,.85-1.38,4.3,4.3,0,0,1,1.28-1,3.71,3.71,0,0,1,1.6-.35,3.52,3.52,0,0,1,1.63.37,4,4,0,0,1,1.26,1,4.86,4.86,0,0,1,.82,1.39,4.56,4.56,0,0,1,0,3.2,4.65,4.65,0,0,1-.84,1.38,4.11,4.11,0,0,1-1.28.95A3.71,3.71,0,0,1,159.74,8.64Zm-2.91-4.32A3.77,3.77,0,0,0,157,5.57a3.52,3.52,0,0,0,.59,1.08,2.9,2.9,0,0,0,.93.74,2.53,2.53,0,0,0,1.2.28A2.59,2.59,0,0,0,161,7.38a2.85,2.85,0,0,0,.92-.77,3.49,3.49,0,0,0,.57-1.08,3.61,3.61,0,0,0,.2-1.21,3.77,3.77,0,0,0-.21-1.25,3.4,3.4,0,0,0-.6-1.07,2.87,2.87,0,0,0-.92-.75,2.73,2.73,0,0,0-2.41,0,2.8,2.8,0,0,0-.92.76A3.82,3.82,0,0,0,157,3.1,3.9,3.9,0,0,0,156.83,4.32Z"/><path class="cls-1" d="M175.22,1.85a1.84,1.84,0,0,0-.38-.33,4.52,4.52,0,0,0-.54-.28,4.12,4.12,0,0,0-.65-.2,3.65,3.65,0,0,0-.74-.08,2.29,2.29,0,0,0-1.45.37,1.22,1.22,0,0,0-.47,1,1,1,0,0,0,.24.72,1.85,1.85,0,0,0,.73.43c.34.11.76.22,1.27.34a9.42,9.42,0,0,1,1.54.47,2.31,2.31,0,0,1,1,.74,1.9,1.9,0,0,1,.35,1.22,2.33,2.33,0,0,1-.23,1.06,2,2,0,0,1-.66.74,2.73,2.73,0,0,1-1,.43,5.24,5.24,0,0,1-1.22.14,5.88,5.88,0,0,1-1.27-.14,5.21,5.21,0,0,1-1.17-.4,5.31,5.31,0,0,1-1-.66l.51-.91a3.12,3.12,0,0,0,.5.4,6.49,6.49,0,0,0,.7.37,5.16,5.16,0,0,0,.84.27,4.92,4.92,0,0,0,.94.1,2.59,2.59,0,0,0,1.42-.33,1.09,1.09,0,0,0,.5-1,1,1,0,0,0-.28-.77,2.21,2.21,0,0,0-.84-.48c-.36-.12-.81-.25-1.34-.38a8.84,8.84,0,0,1-1.45-.47,2,2,0,0,1-.88-.68,1.83,1.83,0,0,1-.3-1.09,2.27,2.27,0,0,1,.4-1.37,2.38,2.38,0,0,1,1.09-.85A4.11,4.11,0,0,1,172.93,0,4.49,4.49,0,0,1,174,.12a4,4,0,0,1,.94.34,4.1,4.1,0,0,1,.79.51Z"/><path class="cls-1" d="M184.63,1h-2.94V8.58h-1.08V1h-2.94v-1h7Z"/><path class="cls-1" d="M188.6.06h.92L193,8.58h-1.16l-1-2.5h-3.67l-1,2.5h-1.15Zm2,5.18-1.51-3.93-1.51,3.93Z"/><path class="cls-1" d="M200.44,1H197.5V8.58h-1.08V1h-2.94v-1h7Z"/><path class="cls-1" d="M204.41.06h.91l3.48,8.52h-1.15l-1-2.5H203l-1,2.5h-1.15Zm2,5.18-1.51-3.93-1.51,3.93Z"/><path class="cls-1" d="M210.9,8.58V.06H212V7.62h4.75v1Z"/><path class="cls-1" d="M224.65,7.62v1h-5.78V.06h5.67V1H220V3.78h4v.9h-4V7.62Z"/></g></g></svg>